<svg width="59" height="84" viewBox="0 0 59 84" fill="none" xmlns="http://www.w3.org/2000/svg">
<path d="M10.4167 58.3333C9.86414 58.3333 9.33424 58.5527 8.94354 58.9434C8.55284 59.3341 8.33334 59.8641 8.33334 60.4166C8.33334 60.9691 8.55284 61.499 8.94354 61.8897C9.33424 62.2804 9.86414 62.4999 10.4167 62.4999H47.9167C48.4692 62.4999 48.9991 62.2804 49.3898 61.8897C49.7805 61.499 50 60.9691 50 60.4166C50 59.8641 49.7805 59.3341 49.3898 58.9434C48.9991 58.5527 48.4692 58.3333 47.9167 58.3333H10.4167ZM8.33334 68.7499C8.33334 68.1974 8.55284 67.6675 8.94354 67.2768C9.33424 66.8861 9.86414 66.6666 10.4167 66.6666H35.4167C35.9692 66.6666 36.4991 66.8861 36.8898 67.2768C37.2805 67.6675 37.5 68.1974 37.5 68.7499C37.5 69.3025 37.2805 69.8324 36.8898 70.2231C36.4991 70.6138 35.9692 70.8333 35.4167 70.8333H10.4167C9.86414 70.8333 9.33424 70.6138 8.94354 70.2231C8.55284 69.8324 8.33334 69.3025 8.33334 68.7499Z" fill="black"/>
<path fill-rule="evenodd" clip-rule="evenodd" d="M22.7562 24.1979C22.598 23.8184 22.331 23.4941 21.9888 23.266C21.6466 23.038 21.2446 22.9163 20.8333 22.9163C20.4221 22.9163 20.0201 23.038 19.6779 23.266C19.3357 23.4941 19.0686 23.8184 18.9104 24.1979L11.1146 42.9063L11.0792 42.9938L8.49374 49.1979C8.28101 49.7079 8.27959 50.2815 8.48979 50.7926C8.69999 51.3036 9.10458 51.7102 9.61457 51.9229C10.1246 52.1357 10.6982 52.1371 11.2092 51.9269C11.7202 51.7167 12.1268 51.3121 12.3396 50.8021L14.4104 45.8333H27.2562L29.3271 50.8021C29.5398 51.3121 29.9464 51.7167 30.4574 51.9269C30.9685 52.1371 31.5421 52.1357 32.0521 51.9229C32.5621 51.7102 32.9667 51.3036 33.1769 50.7926C33.3871 50.2815 33.3856 49.7079 33.1729 49.1979L30.5875 42.9938L30.5521 42.9063L22.7562 24.1979ZM20.8333 30.4167L25.5208 41.6667H16.1458L20.8333 30.4167Z" fill="black"/>
<path d="M41.6667 35.4167C42.2192 35.4167 42.7491 35.6362 43.1398 36.0269C43.5305 36.4176 43.75 36.9475 43.75 37.5001V41.6667H47.9167C48.4692 41.6667 48.9991 41.8862 49.3898 42.2769C49.7805 42.6676 50 43.1975 50 43.7501C50 44.3026 49.7805 44.8325 49.3898 45.2232C48.9991 45.6139 48.4692 45.8334 47.9167 45.8334H43.75V50.0001C43.75 50.5526 43.5305 51.0825 43.1398 51.4732C42.7491 51.8639 42.2192 52.0834 41.6667 52.0834C41.1141 52.0834 40.5842 51.8639 40.1935 51.4732C39.8028 51.0825 39.5833 50.5526 39.5833 50.0001V45.8334H35.4167C34.8641 45.8334 34.3342 45.6139 33.9435 45.2232C33.5528 44.8325 33.3333 44.3026 33.3333 43.7501C33.3333 43.1975 33.5528 42.6676 33.9435 42.2769C34.3342 41.8862 34.8641 41.6667 35.4167 41.6667H39.5833V37.5001C39.5833 36.9475 39.8028 36.4176 40.1935 36.0269C40.5842 35.6362 41.1141 35.4167 41.6667 35.4167Z" fill="black"/>
<path fill-rule="evenodd" clip-rule="evenodd" d="M58.3333 22.9167L37.5 0H8.33333C6.1232 0 4.00358 0.877973 2.44078 2.44078C0.877973 4.00358 0 6.1232 0 8.33333V75C0 77.2101 0.877973 79.3298 2.44078 80.8926C4.00358 82.4554 6.1232 83.3333 8.33333 83.3333H50C52.2101 83.3333 54.3297 82.4554 55.8926 80.8926C57.4554 79.3298 58.3333 77.2101 58.3333 75V22.9167ZM35.4167 22.9167C35.4167 23.4692 35.6362 23.9991 36.0269 24.3898C36.4176 24.7805 36.9475 25 37.5 25H54.1667V75C54.1667 76.1051 53.7277 77.1649 52.9463 77.9463C52.1649 78.7277 51.1051 79.1667 50 79.1667H8.33333C7.22826 79.1667 6.16846 78.7277 5.38706 77.9463C4.60565 77.1649 4.16667 76.1051 4.16667 75V8.33333C4.16667 7.22827 4.60565 6.16846 5.38706 5.38706C6.16846 4.60565 7.22826 4.16667 8.33333 4.16667H35.4167V22.9167ZM50.8083 20.8333L39.5833 8.48542V20.8333H50.8083Z" fill="black"/>
</svg>
