<svg width="42" height="42" viewBox="0 0 42 42" fill="none" xmlns="http://www.w3.org/2000/svg">
<path d="M10.3267 19.2809C10.6956 16.4841 13.1678 13.9526 17.69 11.7467L18.5044 11.3494L15.1658 5.18555L14.4121 5.56757C4.84895 10.4152 0 17.266 0 25.93C0 28.9194 0.948937 31.5013 2.82064 33.604C4.7186 35.7361 7.02188 36.8172 9.66697 36.8172C12.0437 36.8172 14.059 35.9709 15.657 34.3015C17.2445 32.6428 18.0495 30.5826 18.0495 28.1779C18.0495 25.9057 17.2364 23.8806 15.6328 22.1591C14.2184 20.6406 12.4362 19.6747 10.3267 19.2809ZM14.4022 33.1005C13.127 34.4327 11.5781 35.0803 9.66697 35.0803C7.50914 35.0803 5.69412 34.2196 4.11821 32.4491C2.51582 30.649 1.73685 28.5166 1.73685 25.9299C1.73685 21.9591 2.85502 18.374 5.0601 15.2747C7.16412 12.3175 10.3199 9.7067 14.4478 7.50629L16.1203 10.5941C11.0901 13.2301 8.5415 16.3988 8.5415 20.0215V20.7972L9.31219 20.8844C11.3882 21.1195 13.0398 21.9236 14.3619 23.3429C15.6744 24.7521 16.3126 26.3337 16.3126 28.1778C16.3127 30.1472 15.6877 31.7574 14.4022 33.1005Z" fill="#8643DC"/>
<path d="M33.8958 19.2835C34.2603 16.4845 36.7122 13.9517 41.1981 11.7454L42 11.3511L38.7443 5.18286L37.9832 5.56693C28.3763 10.4143 23.5053 17.2655 23.5053 25.9301C23.5053 28.9214 24.4664 31.5046 26.3617 33.608C28.2807 35.7374 30.5935 36.8172 33.2364 36.8172C35.6161 36.8172 37.6222 35.9693 39.1989 34.2968C40.7621 32.6388 41.5547 30.5801 41.5547 28.1779C41.5547 25.9056 40.7416 23.8806 39.1382 22.1591C37.7267 20.6439 35.9659 19.6788 33.8958 19.2835ZM37.9353 33.1053C36.6821 34.4344 35.1452 35.0805 33.2364 35.0805C31.0765 35.0805 29.2498 34.2186 27.652 32.4454C26.0303 30.6458 25.2421 28.5147 25.2421 25.9301C25.2421 21.9599 26.3653 18.3755 28.5802 15.2764C30.6935 12.3199 33.8629 9.70951 38.0084 7.50935L39.6355 10.5924C34.6416 13.2293 32.1112 16.3987 32.1112 20.0217V20.7956L32.8799 20.8844C34.9133 21.1191 36.5446 21.9233 37.8673 23.3431C39.1799 24.7522 39.8179 26.3336 39.8179 28.178C39.818 30.1499 39.2021 31.7617 37.9353 33.1053Z" fill="#8643DC"/>
</svg>
