<svg width="40" height="40" viewBox="0 0 40 40" fill="none" xmlns="http://www.w3.org/2000/svg">
<path d="M0 19.8134C0 8.87078 8.87078 0 19.8134 0H40V19.6269C40 30.6726 30.952 39.6269 19.9063 39.6269C8.96362 39.6269 0 30.7561 0 19.8134Z" fill="#8643DC"/>
<path d="M16 10C16 4.47715 20.4772 0 26 0H40V12.7855C40 18.3083 35.5228 22.7854 30 22.7854H16V10Z" fill="#FF59C1"/>
<path d="M16.71 29.9907V21.4107L17.82 24.3507L8.58 8.99068H13.74L20.82 20.7807H17.85L24.96 8.99068H29.73L20.49 24.3507L21.57 21.4107V29.9907H16.71Z" fill="white"/>
</svg>
