<svg width="75" height="75" viewBox="0 0 75 75" fill="none" xmlns="http://www.w3.org/2000/svg">
<path d="M29.1667 18.7501C29.1667 18.1975 29.3861 17.6676 29.7768 17.2769C30.1675 16.8862 30.6975 16.6667 31.25 16.6667H47.9167C48.4692 16.6667 48.9991 16.8862 49.3898 17.2769C49.7805 17.6676 50 18.1975 50 18.7501C50 19.3026 49.7805 19.8325 49.3898 20.2232C48.9991 20.6139 48.4692 20.8334 47.9167 20.8334H31.25C30.6975 20.8334 30.1675 20.6139 29.7768 20.2232C29.3861 19.8325 29.1667 19.3026 29.1667 18.7501ZM31.25 25.0001C30.6975 25.0001 30.1675 25.2196 29.7768 25.6103C29.3861 26.001 29.1667 26.5309 29.1667 27.0834C29.1667 27.6359 29.3861 28.1659 29.7768 28.5566C30.1675 28.9473 30.6975 29.1667 31.25 29.1667H47.9167C48.4692 29.1667 48.9991 28.9473 49.3898 28.5566C49.7805 28.1659 50 27.6359 50 27.0834C50 26.5309 49.7805 26.001 49.3898 25.6103C48.9991 25.2196 48.4692 25.0001 47.9167 25.0001H31.25ZM29.1667 45.8334C29.1667 45.2809 29.3861 44.751 29.7768 44.3603C30.1675 43.9696 30.6975 43.7501 31.25 43.7501H47.9167C48.4692 43.7501 48.9991 43.9696 49.3898 44.3603C49.7805 44.751 50 45.2809 50 45.8334C50 46.3859 49.7805 46.9159 49.3898 47.3066C48.9991 47.6973 48.4692 47.9167 47.9167 47.9167H31.25C30.6975 47.9167 30.1675 47.6973 29.7768 47.3066C29.3861 46.9159 29.1667 46.3859 29.1667 45.8334ZM31.25 52.0834C30.6975 52.0834 30.1675 52.3029 29.7768 52.6936C29.3861 53.0843 29.1667 53.6142 29.1667 54.1667C29.1667 54.7193 29.3861 55.2492 29.7768 55.6399C30.1675 56.0306 30.6975 56.2501 31.25 56.2501H47.9167C48.4692 56.2501 48.9991 56.0306 49.3898 55.6399C49.7805 55.2492 50 54.7193 50 54.1667C50 53.6142 49.7805 53.0843 49.3898 52.6936C48.9991 52.3029 48.4692 52.0834 47.9167 52.0834H31.25Z" fill="black"/>
<path fill-rule="evenodd" clip-rule="evenodd" d="M8.33334 43.7501C8.33334 43.1975 8.55284 42.6676 8.94354 42.2769C9.33424 41.8862 9.86414 41.6667 10.4167 41.6667H20.8333C21.3859 41.6667 21.9158 41.8862 22.3065 42.2769C22.6972 42.6676 22.9167 43.1975 22.9167 43.7501V54.1667C22.9167 54.7193 22.6972 55.2492 22.3065 55.6399C21.9158 56.0306 21.3859 56.2501 20.8333 56.2501H10.4167C9.86414 56.2501 9.33424 56.0306 8.94354 55.6399C8.55284 55.2492 8.33334 54.7193 8.33334 54.1667V43.7501ZM12.5 45.8334V52.0834H18.75V45.8334H12.5Z" fill="black"/>
<path d="M24.3896 20.223C24.7691 19.8301 24.9791 19.3039 24.9743 18.7576C24.9696 18.2114 24.7505 17.6888 24.3642 17.3026C23.978 16.9163 23.4554 16.6972 22.9092 16.6925C22.3629 16.6877 21.8367 16.8977 21.4438 17.2772L14.5833 24.1376L11.8896 21.4439C11.4967 21.0644 10.9704 20.8544 10.4242 20.8591C9.87794 20.8639 9.35541 21.083 8.96914 21.4692C8.58287 21.8555 8.36377 22.378 8.35903 22.9243C8.35428 23.4705 8.56427 23.9968 8.94376 24.3897L14.5833 30.0293L24.3896 20.223Z" fill="black"/>
<path fill-rule="evenodd" clip-rule="evenodd" d="M8.33333 0C6.1232 0 4.00358 0.877973 2.44078 2.44078C0.877973 4.00358 0 6.1232 0 8.33333V66.6667C0 68.8768 0.877973 70.9964 2.44078 72.5592C4.00358 74.122 6.1232 75 8.33333 75H50C52.2101 75 54.3297 74.122 55.8926 72.5592C57.4554 70.9964 58.3333 68.8768 58.3333 66.6667V8.33333C58.3333 6.1232 57.4554 4.00358 55.8926 2.44078C54.3297 0.877973 52.2101 0 50 0H8.33333ZM4.16667 8.33333C4.16667 7.22826 4.60565 6.16846 5.38706 5.38706C6.16846 4.60565 7.22826 4.16667 8.33333 4.16667H50C51.1051 4.16667 52.1649 4.60565 52.9463 5.38706C53.7277 6.16846 54.1667 7.22826 54.1667 8.33333V66.6667C54.1667 67.7717 53.7277 68.8315 52.9463 69.6129C52.1649 70.3943 51.1051 70.8333 50 70.8333H8.33333C7.22826 70.8333 6.16846 70.3943 5.38706 69.6129C4.60565 68.8315 4.16667 67.7717 4.16667 66.6667V8.33333ZM62.5 20.8333C62.5 19.1757 63.1585 17.586 64.3306 16.4139C65.5027 15.2418 67.0924 14.5833 68.75 14.5833C70.4076 14.5833 71.9973 15.2418 73.1694 16.4139C74.3415 17.586 75 19.1757 75 20.8333V63.1313L68.75 72.5063L62.5 63.1313V20.8333ZM68.75 18.75C68.1975 18.75 67.6676 18.9695 67.2769 19.3602C66.8862 19.7509 66.6667 20.2808 66.6667 20.8333V25H70.8333V20.8333C70.8333 20.2808 70.6138 19.7509 70.2231 19.3602C69.8324 18.9695 69.3025 18.75 68.75 18.75ZM68.75 64.9937L66.6667 61.8687V29.1667H70.8333V61.8687L68.75 64.9937Z" fill="black"/>
</svg>
