<svg width="84" height="68" viewBox="0 0 84 68" fill="none" xmlns="http://www.w3.org/2000/svg">
<path fill-rule="evenodd" clip-rule="evenodd" d="M34.317 0L41.6666 3.6709L49.0162 0H83.3334V62.5H50.9791L41.6666 67.1584L32.3502 62.5H0V0H34.317ZM32.35 8.3334H8.3334V54.1666H34.317L37.5 55.7565V10.9084L32.35 8.3334ZM75 8.3334H50.9791L45.8332 10.9074V55.7565L49.0164 54.1666H75V8.3334ZM70.8334 33.3334V39.5834H50V33.3334H70.8334ZM33.3334 33.3334V39.5834H12.5V33.3334H33.3334ZM70.8334 16.6666V22.9166H50V16.6666H70.8334ZM33.3334 16.6666V22.9166H12.5V16.6666H33.3334Z" fill="black"/>
</svg>
